{"accessors":[{"bufferView":2,"componentType":5126,"count":3764,"max":[0.7663122415542603,2.4700000286102295,-0.1389922946691513],"min":[-0.15057945251464844,-3.609557054039112e-16,-1.0842413902282715],"type":"VEC3"},{"bufferView":2,"byteOffset":45168,"componentType":5126,"count":3764,"max":[1,0.9351440072059631,1],"min":[-1,-0.9543716311454773,-1],"type":"VEC3"},{"bufferView":1,"componentType":5126,"count":3764,"max":[0.9726245999336243,0.9884596467018127],"min":[0.02737542800605297,-0.011540358886122704],"type":"VEC2"},{"bufferView":1,"byteOffset":30112,"componentType":5126,"count":3764,"max":[0.9726245999336243,0.9884596467018127],"min":[0.02737542800605297,-0.011540358886122704],"type":"VEC2"},{"bufferView":1,"byteOffset":60224,"componentType":5126,"count":3764,"max":[0.9726245999336243,0.9884596467018127],"min":[0.02737542800605297,-0.011540358886122704],"type":"VEC2"},{"bufferView":1,"byteOffset":90336,"componentType":5126,"count":3764,"max":[0.9726245999336243,0.9884596467018127],"min":[0.02737542800605297,-0.011540358886122704],"type":"VEC2"},{"bufferView":1,"byteOffset":120448,"componentType":5126,"count":3764,"max":[0.9726245999336243,0.9884596467018127],"min":[0.02737542800605297,-0.011540358886122704],"type":"VEC2"},{"bufferView":1,"byteOffset":150560,"componentType":5126,"count":3764,"max":[0.9726245999336243,0.9884596467018127],"min":[0.02737542800605297,-0.011540358886122704],"type":"VEC2"},{"bufferView":1,"byteOffset":180672,"componentType":5126,"count":3764,"max":[0.9726245999336243,0.9884596467018127],"min":[0.02737542800605297,-0.011540358886122704],"type":"VEC2"},{"bufferView":1,"byteOffset":210784,"componentType":5126,"count":3764,"max":[0.9726245999336243,0.9884596467018127],"min":[0.02737542800605297,-0.011540358886122704],"type":"VEC2"},{"bufferView":1,"byteOffset":240896,"componentType":5126,"count":3764,"max":[0.9726245999336243,0.9884596467018127],"min":[0.02737542800605297,-0.011540358886122704],"type":"VEC2"},{"bufferView":1,"byteOffset":271008,"componentType":5126,"count":3764,"max":[0.9726245999336243,0.9884596467018127],"min":[0.02737542800605297,-0.011540358886122704],"type":"VEC2"},{"bufferView":0,"componentType":5125,"count":20268,"max":[3763],"min":[0],"type":"SCALAR"},{"bufferView":2,"byteOffset":90336,"componentType":5126,"count":192,"max":[0.7074300050735474,2.4700000286102295,-0.19969558715820312],"min":[-0.09169726073741913,-3.609557054039112e-16,-1.0235381126403809],"type":"VEC3"},{"bufferView":2,"byteOffset":92640,"componentType":5126,"count":192,"max":[1,1,1],"min":[-1,-1,-1],"type":"VEC3"},{"bufferView":1,"byteOffset":301120,"componentType":5126,"count":192,"max":[0.644551157951355,1],"min":[-0.9141968488693237,-0.1647685170173645],"type":"VEC2"},{"bufferView":1,"byteOffset":302656,"componentType":5126,"count":192,"max":[0.644551157951355,1],"min":[-0.9141968488693237,-0.1647685170173645],"type":"VEC2"},{"bufferView":1,"byteOffset":304192,"componentType":5126,"count":192,"max":[0.644551157951355,1],"min":[-0.9141968488693237,-0.1647685170173645],"type":"VEC2"},{"bufferView":1,"byteOffset":305728,"componentType":5126,"count":192,"max":[0.644551157951355,1],"min":[-0.9141968488693237,-0.1647685170173645],"type":"VEC2"},{"bufferView":1,"byteOffset":307264,"componentType":5126,"count":192,"max":[0.644551157951355,1],"min":[-0.9141968488693237,-0.1647685170173645],"type":"VEC2"},{"bufferView":1,"byteOffset":308800,"componentType":5126,"count":192,"max":[0.644551157951355,1],"min":[-0.9141968488693237,-0.1647685170173645],"type":"VEC2"},{"bufferView":1,"byteOffset":310336,"componentType":5126,"count":192,"max":[0.644551157951355,1],"min":[-0.9141968488693237,-0.1647685170173645],"type":"VEC2"},{"bufferView":1,"byteOffset":311872,"componentType":5126,"count":192,"max":[0.644551157951355,1],"min":[-0.9141968488693237,-0.1647685170173645],"type":"VEC2"},{"bufferView":1,"byteOffset":313408,"componentType":5126,"count":192,"max":[0.644551157951355,1],"min":[-0.9141968488693237,-0.1647685170173645],"type":"VEC2"},{"bufferView":1,"byteOffset":314944,"componentType":5126,"count":192,"max":[0.644551157951355,1],"min":[-0.9141968488693237,-0.1647685170173645],"type":"VEC2"},{"bufferView":0,"byteOffset":81072,"componentType":5125,"count":420,"max":[191],"min":[0],"type":"SCALAR"}],"asset":{"extras":{"author":"3DDomino (https://sketchfab.com/3DDomino)","license":"CC-BY-4.0 (http://creativecommons.org/licenses/by/4.0/)","source":"https://sketchfab.com/3d-models/chivas-bottle-1e4000817e9442e7909c6060d1fec940","title":"Chivas bottle"},"generator":"Sketchfab-9.90.0","version":"2.0"},"bufferViews":[{"buffer":0,"byteLength":82752,"byteOffset":0,"name":"floatBufferViews","target":34963},{"buffer":0,"byteLength":316480,"byteOffset":82752,"byteStride":8,"name":"floatBufferViews","target":34962},{"buffer":0,"byteLength":94944,"byteOffset":399232,"byteStride":12,"name":"floatBufferViews","target":34962}],"buffers":[{"byteLength":494176,"uri":"data:application/octet-stream;base64,"}],"images":[{"uri":"data:application/octet-stream;base64,"}],"materials":[{"doubleSided":true,"emissiveFactor":[0,0,0],"name":"M_8a","pbrMetallicRoughness":{"baseColorFactor":[1,1,1,1],"baseColorTexture":{"index":0,"texCoord":0},"metallicFactor":0,"roughnessFactor":0.9302134966129227}},{"doubleSided":true,"emissiveFactor":[0,0,0],"name":"material","pbrMetallicRoughness":{"baseColorFactor":[0.368627,0.227451,0.188235,1],"metallicFactor":0,"roughnessFactor":0.9302134966129227}}],"meshes":[{"name":"Mesh1_M_8a_0","primitives":[{"attributes":{"NORMAL":1,"POSITION":0,"TEXCOORD_0":2,"TEXCOORD_1":3,"TEXCOORD_2":4,"TEXCOORD_3":5,"TEXCOORD_4":6,"TEXCOORD_5":7,"TEXCOORD_6":8,"TEXCOORD_7":9,"TEXCOORD_8":10,"TEXCOORD_9":11},"indices":12,"material":0,"mode":4}]},{"name":"Mesh1_M_8_0","primitives":[{"attributes":{"NORMAL":14,"POSITION":13,"TEXCOORD_0":15,"TEXCOORD_1":16,"TEXCOORD_2":17,"TEXCOORD_3":18,"TEXCOORD_4":19,"TEXCOORD_5":20,"TEXCOORD_6":21,"TEXCOORD_7":22,"TEXCOORD_8":23,"TEXCOORD_9":24},"indices":25,"material":1,"mode":4}]}],"nodes":[{"children":[1],"name":"RootNode (gltf orientation matrix)","rotation":[-0.7071067811865475,0,0,0.7071067811865476]},{"children":[2],"name":"RootNode (model correction matrix)"},{"children":[3],"matrix":[1,0,0,0,0,0,1,0,0,-1,0,0,0,0,0,1],"name":"0e8b304fe0f54004811a2deb4311cc8e.fbx"},{"children":[4],"name":"RootNode"},{"children":[5],"name":"Model"},{"children":[6],"name":"Chivas1"},{"children":[7,8],"name":"Mesh1"},{"mesh":0,"name":"Mesh1_M_8a_0"},{"mesh":1,"name":"Mesh1_M_8_0"}],"samplers":[{"magFilter":9729,"minFilter":9987,"wrapS":10497,"wrapT":10497}],"scene":0,"scenes":[{"name":"OSG_Scene","nodes":[0]}],"textures":[{"sampler":0,"source":0}]}